<svg width="235" height="45" viewBox="0 0 235 45" fill="none" xmlns="http://www.w3.org/2000/svg">
<path d="M47.3953 20.12L29.5461 16.6662C28.9187 17.7066 27.6666 18.278 26.4004 18.0222C25.4067 17.8459 24.6232 17.2035 24.2314 16.3592C23.956 15.7992 23.8651 15.1426 23.9815 14.4774C24.3137 12.8372 25.9007 11.7457 27.5502 12.0754C28.8221 12.3341 29.7704 13.3148 29.9606 14.5457L46.7763 17.7749L42.2026 1.13704C42.2026 1.13704 42.055 1.0802 41.7682 0.98355C41.7569 0.98355 41.7342 0.983556 41.7228 0.972185C38.7077 0.37808 34.1567 0 29.0691 0C24.0326 0 19.527 0.366704 16.512 0.94944C16.5006 0.96081 16.4779 0.960804 16.4779 0.960804C16.1344 1.05745 15.9413 1.13704 15.9413 1.13704L14.8738 5.04848H14.8852L33.6996 8.51362H33.711C34.0432 7.95363 34.5684 7.51871 35.1731 7.28561C35.6927 7.08663 36.2747 7.02694 36.8567 7.14917C37.8503 7.34247 38.6481 8.01334 39.0427 8.88033C39.1506 9.11343 39.2301 9.34936 39.2756 9.60519C39.3437 9.97758 39.321 10.3073 39.2415 10.7024C39.196 10.9725 39.1166 11.2283 38.9973 11.4614C38.9519 11.5581 38.9065 11.649 38.8554 11.7428H38.8326C38.2052 12.7889 36.9873 13.3603 35.6926 13.0931C34.523 12.8941 33.6429 12.0186 33.3731 10.927C33.3391 10.8474 33.3164 10.7621 33.305 10.6825L14.3032 7.14917L11.3222 17.9084L28.8448 21.1718H28.8732C29.1429 20.7141 29.5461 20.3304 30.0259 20.0859C30.6136 19.7647 31.3148 19.6396 32.0132 19.7874C33.2823 20.0376 34.2391 21.0325 34.4349 22.252C34.4974 22.6016 34.4747 22.9712 34.4122 23.3378C34.3327 23.7045 34.2249 24.0741 34.0062 24.3782H33.9835C33.3731 25.4129 32.1438 25.9957 30.8606 25.7399C29.6 25.5068 28.6631 24.5232 28.4729 23.3151L10.8764 20.0632L0 23.4317C0 23.4317 0.0113635 23.443 0.034076 23.443C0.29243 23.5852 2.20879 24.6142 5.36583 25.8223C6.45603 26.2345 7.67398 26.6694 9.03673 27.0844C10.0758 27.4056 11.2115 27.7297 12.384 28.0338C12.5203 28.068 12.6537 28.1021 12.7956 28.1305C12.7956 28.1305 12.807 28.1305 12.8127 28.1362C10.8651 29.8332 9.63293 32.3375 9.63293 35.129C9.63293 40.2457 13.7723 44.3902 18.8826 44.3902C23.4052 44.3902 27.167 41.144 27.9676 36.8488L30.5369 38.2388C31.8088 41.8233 35.2299 44.3902 39.25 44.3902C44.3603 44.3902 48.4996 40.2457 48.4996 35.129C48.4996 32.3347 47.2675 29.8304 45.3142 28.1362C45.3596 28.1248 45.3994 28.1134 45.4448 28.1021C45.547 28.0793 45.6606 28.0566 45.76 28.0338C46.9524 27.7297 48.0596 27.4056 49.0959 27.0844C50.4614 26.6665 51.6879 26.2316 52.7668 25.8223C55.9351 24.617 57.8487 23.588 58.1042 23.443H58.1099C58.1212 23.4317 58.1326 23.4317 58.1326 23.4317L47.3953 20.12ZM18.8797 41.9626C15.1123 41.9626 12.0632 38.8983 12.0632 35.1261C12.0632 32.3489 13.7127 29.964 16.089 28.8951C16.265 28.9293 16.4325 28.9634 16.6028 29.0032C16.9918 29.0657 17.375 29.1226 17.7612 29.2135C17.7839 29.2135 17.7952 29.2249 17.8179 29.2249H17.8293C17.9712 29.2476 18.1388 29.2817 18.275 29.3045C18.3091 29.3045 18.3432 29.3158 18.3772 29.3158H18.3943C18.3943 29.3158 18.61 29.3329 18.6498 29.3329C18.7861 29.3556 18.9876 29.3784 19.2204 29.4125C19.2999 29.4239 19.3851 29.4239 19.4788 29.4353C19.5696 29.4466 19.6662 29.458 19.7712 29.4694C20.075 29.5035 20.4157 29.5376 20.7989 29.566C20.9295 29.5887 21.0743 29.6115 21.2106 29.6229C21.5428 29.6683 21.9005 29.7025 22.2497 29.7366C22.5535 29.7764 22.8601 29.7991 23.1752 29.8105C24.7225 31.0612 25.7105 32.9715 25.7105 35.1205C25.7077 38.8983 22.6529 41.9626 18.8797 41.9626ZM30.006 34.6685L28.0016 33.6167C27.7915 32.2892 27.2947 31.0612 26.5736 29.9924C26.7099 29.9924 26.8461 29.9981 26.9853 29.9981C27.0988 29.9981 27.2067 30.0094 27.3118 30.0094C27.678 30.0208 28.0471 30.0208 28.4133 30.0208C28.6064 30.0208 28.7852 30.0208 28.9612 30.0094H29.1713C29.3701 30.0208 29.5887 30.0208 29.7988 30.0208C30.1196 30.0208 30.4546 30.0208 30.7924 30.0094C30.9571 30.0094 31.136 29.9981 31.3006 29.9981C31.3801 29.9924 31.4596 29.9867 31.5476 29.9924C30.6476 31.3426 30.094 32.943 30.006 34.6685ZM46.0751 35.1261C46.0751 38.8983 43.0203 41.9626 39.2472 41.9626C35.4797 41.9626 32.4306 38.8983 32.4306 35.1261C32.4306 32.9771 33.4186 31.0669 34.9602 29.8162C35.633 29.7877 36.2974 29.7138 36.9418 29.6172C37.0781 29.6058 37.2087 29.5944 37.3365 29.5717C37.4784 29.5603 37.6289 29.5546 37.7595 29.5433C38.1257 29.4978 38.438 29.4637 38.7077 29.4409C39.0456 29.3954 39.3011 29.3613 39.48 29.3386C39.5027 29.3386 39.5595 29.3215 39.5822 29.3215C39.69 29.3215 39.7355 29.3215 39.7355 29.3215H39.7582C39.7809 29.3215 39.8036 29.3215 39.8263 29.3102C39.9683 29.2988 40.1244 29.2533 40.3118 29.2306C40.3345 29.2306 40.3572 29.2192 40.3799 29.2192C40.7746 29.1282 41.1408 29.0714 41.5326 29.0089C41.7029 28.9691 41.8704 28.9293 42.0408 28.8951C44.4199 29.9583 46.0751 32.3432 46.0751 35.1261Z" fill="#BAFF00"/>
<path d="M16.2256 40.0466C18.9369 41.5219 22.3296 40.5043 23.803 37.7896C25.2651 35.0635 24.2601 31.6666 21.5375 30.2026L16.2256 40.0466Z" fill="#BAFF00"/>
<path d="M36.5902 40.0466C39.3015 41.5219 42.6942 40.5043 44.1677 37.7896C45.6298 35.0635 44.6248 31.6666 41.9021 30.2026L36.5902 40.0466Z" fill="#BAFF00"/>
<path d="M28.1853 16.6321H25.8857V15.9499H26.6835V14.1335L25.9339 14.358V13.6303L26.973 13.2466H27.4415V15.9499H28.1853V16.6321Z" fill="#BAFF00"/>
<path d="M37.8038 10.1226C37.8038 11.1488 37.2474 11.8907 36.3304 11.8907C35.4133 11.8907 34.8512 11.1488 34.8512 10.1226C34.8512 9.09642 35.4133 8.35449 36.3304 8.35449C37.2474 8.35449 37.8038 9.09642 37.8038 10.1226ZM37.0458 10.1226C37.0458 9.53703 36.7988 9.08789 36.3247 9.08789C35.8477 9.08789 35.5979 9.53703 35.5979 10.1226C35.5979 10.711 35.8449 11.1573 36.3247 11.1573C36.796 11.1573 37.0458 10.711 37.0458 10.1226Z" fill="#BAFF00"/>
<path d="M32.9018 22.7835C32.9018 23.8097 32.3454 24.5516 31.4284 24.5516C30.5114 24.5516 29.9492 23.8097 29.9492 22.7835C29.9492 21.7573 30.5114 21.0154 31.4284 21.0154C32.3454 21.0182 32.9018 21.7601 32.9018 22.7835ZM32.1438 22.7835C32.1438 22.1979 31.8968 21.7488 31.4227 21.7488C30.9457 21.7488 30.6959 22.1979 30.6959 22.7835C30.6959 23.3719 30.9429 23.8182 31.4227 23.8182C31.8968 23.8182 32.1438 23.3719 32.1438 22.7835Z" fill="#BAFF00"/>
<path d="M70.2487 35.0749C70.0926 35.1516 69.8598 35.2398 69.5503 35.3336C69.2409 35.4274 68.8519 35.4728 68.3863 35.4728C67.9803 35.4728 67.6198 35.4131 67.316 35.2739C67.0151 35.1346 66.7567 34.9469 66.5495 34.6968C66.3507 34.4552 66.1946 34.1539 66.0924 33.8071C65.9987 33.4631 65.9447 33.0822 65.9447 32.6586C65.9447 32.2266 65.9958 31.84 66.1179 31.4846C66.2286 31.1407 66.4018 30.8365 66.6176 30.5949C66.8334 30.3533 67.1002 30.1628 67.4012 30.0349C67.7106 29.9042 68.057 29.8445 68.4431 29.8445C68.6248 29.8445 68.8037 29.8615 68.9854 29.8871C69.1671 29.9212 69.3289 29.9553 69.4765 30.0093C69.6327 30.052 69.7604 30.1031 69.8825 30.1486C70.0046 30.1998 70.0983 30.2424 70.1579 30.2794L70.4503 29.4692C70.4077 29.4437 70.3282 29.401 70.2175 29.347C70.1068 29.2958 69.9677 29.2447 69.786 29.1821C69.6043 29.131 69.397 29.0883 69.1472 29.0429C68.9059 29.0002 68.639 28.9832 68.3381 28.9832C67.8639 28.9832 67.4154 29.0599 66.9923 29.2248C66.5693 29.3896 66.2002 29.6227 65.8879 29.9326C65.57 30.251 65.3201 30.6319 65.1299 31.0895C64.9482 31.5472 64.8545 32.0731 64.8545 32.6615C64.8545 33.2471 64.9397 33.7758 65.1044 34.2335C65.269 34.6911 65.5018 35.0806 65.8028 35.3904C66.1037 35.7002 66.4671 35.9333 66.8901 36.0982C67.3046 36.2631 67.7702 36.3484 68.287 36.3484C68.5794 36.3484 68.8548 36.3313 69.1046 36.2972C69.3544 36.2631 69.5787 36.2204 69.7689 36.175C69.9592 36.1238 70.1125 36.0726 70.2431 36.0186C70.3737 35.976 70.4588 35.9333 70.5014 35.8964L70.2487 35.0749Z" fill="#A8A8AB"/>
<path d="M77.7286 29.1481C77.4532 29.6996 77.1523 30.2624 76.8229 30.8395C76.4879 31.408 76.1501 31.9623 75.8066 32.4882C75.463 31.9623 75.1167 31.408 74.7902 30.8395C74.4637 30.2624 74.1599 29.6996 73.893 29.1481H72.6949C73.0754 29.8218 73.4785 30.5126 73.9101 31.2204C74.3331 31.9282 74.7902 32.636 75.2728 33.3609V36.1921H76.2977V33.341C76.7718 32.6246 77.2204 31.9168 77.6519 31.209C78.0835 30.5097 78.4866 29.819 78.8585 29.1453H77.7286V29.1481Z" fill="#A8A8AB"/>
<path d="M86.462 33.0056C86.2037 32.7469 85.8687 32.5479 85.4371 32.4285C85.7551 32.3091 86.005 32.1272 86.1952 31.877C86.3854 31.6269 86.4791 31.3085 86.4791 30.9276C86.4791 30.5836 86.4024 30.288 86.2463 30.0464C86.0901 29.8133 85.8857 29.6228 85.6075 29.4779C85.3406 29.33 85.0198 29.2277 84.6507 29.168C84.2873 29.1083 83.8927 29.0742 83.4697 29.0742C83.322 29.0742 83.1687 29.0827 82.9955 29.0913C82.8224 29.0913 82.6605 29.0998 82.4874 29.1169C82.3142 29.1339 82.1438 29.151 81.9792 29.168C81.806 29.1851 81.6527 29.2107 81.5135 29.2448V36.0813C81.6498 36.1154 81.806 36.1409 81.9792 36.158C82.1438 36.1836 82.3142 36.2006 82.4874 36.2092C82.6605 36.2262 82.8309 36.2347 83.0041 36.2433C83.1687 36.2518 83.3306 36.2518 83.4782 36.2518C84.6422 36.2518 85.4939 36.0699 86.0305 35.7174C86.5642 35.3649 86.8396 34.8277 86.8396 34.1284C86.8425 33.6423 86.7119 33.2728 86.462 33.0056ZM82.5243 29.9327C82.6463 29.9242 82.7741 29.9156 82.9217 29.9071C83.0694 29.8986 83.2766 29.8986 83.535 29.8986C83.7933 29.8986 84.0432 29.9156 84.276 29.9583C84.5088 30.0009 84.7075 30.0606 84.8807 30.1487C85.0539 30.2255 85.1901 30.3392 85.2867 30.4756C85.3832 30.6234 85.4343 30.7855 85.4343 30.993C85.4343 31.209 85.3832 31.3909 85.2867 31.5274C85.193 31.6752 85.0624 31.7861 84.8977 31.8714C84.7331 31.9652 84.5428 32.0277 84.3214 32.0618C84.0886 32.0959 83.8558 32.1044 83.606 32.1044H82.5271V29.9327H82.5243ZM85.599 34.7736C85.4797 34.947 85.3151 35.075 85.1078 35.1716C84.9091 35.2654 84.6678 35.3365 84.4009 35.3706C84.134 35.4047 83.8416 35.4303 83.5378 35.4303C83.3817 35.4303 83.2369 35.4218 83.1148 35.4218C82.9927 35.4218 82.882 35.4132 82.7968 35.4047C82.6946 35.3962 82.5981 35.3962 82.5214 35.3877V32.9032H83.8387C84.1312 32.9032 84.398 32.9288 84.6308 32.9714C84.8722 33.0056 85.0794 33.0738 85.2526 33.1704C85.4258 33.2642 85.5535 33.395 85.6501 33.5513C85.7352 33.7162 85.7807 33.9038 85.7807 34.1369C85.7807 34.3927 85.721 34.6088 85.599 34.7736Z" fill="#A8A8AB"/>
<path d="M90.9801 35.3421V32.9004H94.0321V32.0817H90.9801V29.9838H94.4097V29.1453H89.9609V36.1864H94.6766V35.3393H90.9801V35.3421Z" fill="#A8A8AB"/>
<path d="M102.718 35.3421C102.537 35.0493 102.355 34.7736 102.176 34.5064C101.997 34.2392 101.816 33.9975 101.642 33.773C101.469 33.5569 101.333 33.375 101.219 33.2386C101.711 33.0737 102.091 32.8321 102.349 32.4966C102.608 32.1697 102.73 31.7718 102.73 31.2971C102.73 30.5637 102.463 30.0037 101.929 29.6313C101.395 29.2589 100.612 29.0713 99.5926 29.0713C99.2916 29.0713 98.9708 29.0883 98.6188 29.1054C98.2639 29.131 97.9374 29.1821 97.6535 29.2447V36.192H98.6699V33.4404H99.8765C99.9702 33.4404 100.067 33.4319 100.152 33.4233C100.291 33.5882 100.436 33.7673 100.6 33.9748C100.765 34.1823 100.935 34.4154 101.1 34.6485C101.273 34.8901 101.435 35.1488 101.6 35.4075C101.764 35.6747 101.918 35.9334 102.057 36.192H103.178C103.045 35.922 102.892 35.6377 102.718 35.3421ZM101.055 32.3744C100.856 32.4682 100.623 32.5393 100.339 32.5734C100.064 32.599 99.7459 32.616 99.391 32.616H98.667V29.9667C98.8999 29.9497 99.2348 29.9326 99.6664 29.9326C99.9418 29.9326 100.2 29.9582 100.441 30.0008C100.683 30.0349 100.89 30.1032 101.072 30.2083C101.253 30.3107 101.39 30.45 101.503 30.6319C101.605 30.8053 101.659 31.0298 101.659 31.2885C101.659 31.5728 101.608 31.8059 101.503 31.9793C101.39 32.1498 101.245 32.2806 101.055 32.3744Z" fill="#A8A8AB"/>
<path d="M110.157 33.574C110.055 33.3324 109.907 33.1334 109.708 32.9685C109.518 32.7951 109.285 32.6501 109.027 32.5279C108.76 32.4085 108.476 32.2863 108.155 32.1555C107.931 32.0788 107.724 31.9992 107.542 31.9139C107.352 31.8371 107.19 31.7405 107.051 31.6467C106.912 31.5529 106.801 31.4307 106.724 31.3027C106.648 31.1805 106.611 31.0185 106.611 30.828C106.611 30.6546 106.645 30.5096 106.724 30.3874C106.793 30.2566 106.898 30.1543 107.017 30.0776C107.148 30.0008 107.292 29.9298 107.465 29.8956C107.63 29.853 107.809 29.8359 108.008 29.8359C108.397 29.8359 108.732 29.8786 109.024 29.9582C109.317 30.0434 109.532 30.1316 109.68 30.2169L110.006 29.4152C109.833 29.3129 109.575 29.2077 109.214 29.1224C108.851 29.0286 108.448 28.9832 108.008 28.9832C107.25 28.9832 106.645 29.1566 106.208 29.5005C105.776 29.8445 105.56 30.3277 105.56 30.9417C105.56 31.243 105.612 31.4932 105.708 31.7007C105.81 31.9167 105.949 32.0987 106.131 32.2436C106.304 32.4 106.512 32.5279 106.753 32.6416C106.986 32.7525 107.244 32.8576 107.502 32.9429C107.735 33.0282 107.959 33.1078 108.167 33.1845C108.374 33.2698 108.556 33.3665 108.717 33.4773C108.882 33.5882 109.01 33.719 109.098 33.8753C109.192 34.0316 109.246 34.2107 109.246 34.4268C109.246 35.1346 108.712 35.4871 107.65 35.4871C107.167 35.4871 106.761 35.4274 106.435 35.3222C106.108 35.2113 105.859 35.1147 105.702 35.0294L105.393 35.8395C105.47 35.8822 105.583 35.9248 105.711 35.9874C105.85 36.0471 106.012 36.0982 106.202 36.1522C106.392 36.2034 106.608 36.246 106.849 36.283C107.091 36.3171 107.358 36.3427 107.65 36.3427C108.496 36.3427 109.149 36.1693 109.615 35.8424C110.08 35.507 110.313 35.0322 110.313 34.4182C110.313 34.0913 110.262 33.8071 110.157 33.574Z" fill="#A8A8AB"/>
<path d="M114.251 35.3421V32.9004H117.303V32.0817H114.251V29.9838H117.681V29.1453H113.223V36.1864H117.939V35.3393H114.251V35.3421Z" fill="#A8A8AB"/>
<path d="M125.716 35.0749C125.559 35.1516 125.327 35.2398 125.026 35.3336C124.716 35.4274 124.327 35.4728 123.853 35.4728C123.447 35.4728 123.095 35.4131 122.786 35.2739C122.485 35.1346 122.226 34.9469 122.028 34.6968C121.82 34.4552 121.664 34.1539 121.571 33.8071C121.468 33.4631 121.414 33.0822 121.414 32.6586C121.414 32.2266 121.474 31.84 121.588 31.4846C121.698 31.1407 121.872 30.8365 122.087 30.5949C122.303 30.3533 122.57 30.1628 122.879 30.0349C123.18 29.9042 123.535 29.8445 123.921 29.8445C124.103 29.8445 124.282 29.8615 124.455 29.8871C124.637 29.9212 124.799 29.9553 124.955 30.0093C125.102 30.052 125.239 30.1031 125.361 30.1486C125.474 30.1998 125.568 30.2424 125.628 30.2794L125.929 29.4692C125.886 29.4437 125.809 29.401 125.696 29.347C125.585 29.2958 125.437 29.2447 125.256 29.1821C125.074 29.131 124.867 29.0883 124.625 29.0429C124.384 29.0002 124.109 28.9832 123.808 28.9832C123.334 28.9832 122.885 29.0599 122.462 29.2248C122.039 29.3896 121.67 29.6227 121.358 29.9326C121.04 30.251 120.79 30.6319 120.608 31.0895C120.418 31.5472 120.324 32.0731 120.324 32.6615C120.324 33.2471 120.409 33.7758 120.574 34.2335C120.739 34.6911 120.972 35.0806 121.273 35.3904C121.573 35.7002 121.937 35.9333 122.36 36.0982C122.783 36.2631 123.248 36.3484 123.757 36.3484C124.049 36.3484 124.324 36.3313 124.574 36.2972C124.833 36.2631 125.048 36.2204 125.239 36.175C125.429 36.1238 125.582 36.0726 125.713 36.0186C125.843 35.976 125.929 35.9333 125.98 35.8964L125.716 35.0749Z" fill="#A8A8AB"/>
<path d="M133.292 29.1479V33.4545C133.292 33.807 133.249 34.1111 133.161 34.3613C133.076 34.62 132.954 34.8275 132.801 34.9924C132.653 35.1572 132.466 35.2766 132.25 35.3562C132.043 35.433 131.801 35.4671 131.543 35.4671C131.026 35.4671 130.603 35.3107 130.285 34.9924C129.959 34.674 129.794 34.1651 129.794 33.4573V29.1508H128.778V33.5682C128.778 33.9662 128.829 34.3272 128.942 34.6654C129.053 35.0094 129.218 35.2965 129.442 35.5467C129.666 35.7968 129.95 35.9873 130.305 36.1322C130.657 36.2715 131.072 36.3483 131.546 36.3483C132.02 36.3483 132.434 36.2715 132.778 36.1322C133.133 35.9844 133.417 35.7968 133.65 35.5467C133.874 35.2965 134.038 35.0122 134.149 34.6654C134.26 34.33 134.314 33.9662 134.314 33.5682V29.1508H133.292V29.1479Z" fill="#A8A8AB"/>
<path d="M142.818 35.3421C142.636 35.0493 142.457 34.7736 142.276 34.5064C142.094 34.2392 141.915 33.9975 141.742 33.773C141.569 33.5569 141.433 33.375 141.319 33.2386C141.819 33.0737 142.191 32.8321 142.449 32.4966C142.707 32.1697 142.838 31.7718 142.838 31.2971C142.838 30.5637 142.571 30.0037 142.026 29.6313C141.492 29.2589 140.709 29.0713 139.689 29.0713C139.397 29.0713 139.068 29.0883 138.716 29.1054C138.361 29.131 138.043 29.1821 137.75 29.2447V36.192H138.767V33.4404H139.973C140.067 33.4404 140.164 33.4319 140.257 33.4233C140.388 33.5882 140.533 33.7673 140.706 33.9748C140.87 34.1823 141.032 34.4154 141.197 34.6485C141.37 34.8901 141.532 35.1488 141.697 35.4075C141.861 35.6747 142.015 35.9334 142.154 36.192H143.275C143.145 35.922 142.997 35.6377 142.818 35.3421ZM141.154 32.3744C140.956 32.4682 140.723 32.5393 140.447 32.5734C140.164 32.599 139.846 32.616 139.499 32.616H138.767V29.9667C139 29.9497 139.335 29.9326 139.775 29.9326C140.041 29.9326 140.3 29.9582 140.541 30.0008C140.782 30.0349 140.998 30.1032 141.171 30.2083C141.353 30.3107 141.498 30.45 141.603 30.6319C141.705 30.8053 141.759 31.0298 141.759 31.2885C141.759 31.5728 141.708 31.8059 141.603 31.9793C141.498 32.1498 141.342 32.2806 141.154 32.3744Z" fill="#A8A8AB"/>
<path d="M146.048 29.1479V36.1891H147.064V29.1479H146.048Z" fill="#A8A8AB"/>
<path d="M149.824 29.1479V30.0036H152.115V36.1919H153.14V30.0036H155.431V29.1479H149.824Z" fill="#A8A8AB"/>
<path d="M162.677 29.1481C162.41 29.6996 162.109 30.2624 161.771 30.8395C161.445 31.408 161.107 31.9623 160.763 32.4882C160.42 31.9623 160.074 31.408 159.747 30.8395C159.421 30.2624 159.117 29.6996 158.85 29.1481H157.652C158.032 29.8218 158.435 30.5126 158.858 31.2204C159.29 31.9282 159.747 32.636 160.23 33.3609V36.1921H161.246V33.341C161.729 32.6246 162.177 31.9168 162.609 31.209C163.032 30.5097 163.438 29.819 163.815 29.1453H162.677V29.1481Z" fill="#A8A8AB"/>
<path d="M171.597 35.3421V32.9004H174.649V32.0817H171.597V29.9838H175.027V29.1453H170.578V36.1864H175.294V35.3393H171.597V35.3421Z" fill="#A8A8AB"/>
<path d="M182.681 34.3501C182.258 33.719 181.809 33.0823 181.326 32.4256L183.62 29.1453H182.456L180.682 31.769L178.882 29.1453H177.701L180.038 32.4683C179.572 33.1164 179.123 33.7531 178.709 34.3671C178.294 34.9897 177.925 35.5923 177.604 36.1892H178.734C178.837 35.9817 178.967 35.7572 179.123 35.5155C179.271 35.2654 179.433 35.0067 179.606 34.7395C179.771 34.4723 179.949 34.2051 180.14 33.9379C180.33 33.6707 180.52 33.4206 180.69 33.1789C180.864 33.4206 181.043 33.6707 181.233 33.9379C181.423 34.2051 181.602 34.4723 181.784 34.7395C181.957 35.0067 182.119 35.2654 182.266 35.5155C182.414 35.7572 182.542 35.9817 182.644 36.1892H183.791C183.467 35.5838 183.095 34.9726 182.681 34.3501Z" fill="#A8A8AB"/>
<path d="M190.888 29.6398C190.337 29.2589 189.551 29.0713 188.526 29.0713C188.234 29.0713 187.904 29.0883 187.552 29.1054C187.197 29.131 186.879 29.1821 186.595 29.2447V36.192H187.612V33.5768H188.421C188.929 33.5768 189.395 33.5342 189.801 33.4546C190.207 33.3778 190.55 33.2471 190.834 33.0652C191.118 32.8832 191.334 32.6501 191.49 32.3573C191.638 32.0731 191.714 31.7263 191.714 31.3226C191.714 30.5722 191.439 30.0094 190.888 29.6398ZM190.482 32.0134C190.38 32.1953 190.224 32.3403 190.034 32.4455C189.843 32.5478 189.602 32.6274 189.327 32.67C189.043 32.7127 188.733 32.7297 188.378 32.7297H187.612V29.9667C187.845 29.9497 188.171 29.9326 188.611 29.9326C188.887 29.9326 189.145 29.9582 189.386 30.0008C189.636 30.0349 189.852 30.1117 190.034 30.2169C190.224 30.3192 190.369 30.4585 190.474 30.6404C190.587 30.8138 190.638 31.0384 190.638 31.3056C190.638 31.5898 190.584 31.8315 190.482 32.0134Z" fill="#A8A8AB"/>
<path d="M195.691 35.3421V32.9004H198.743V32.0817H195.691V29.9838H199.12V29.1453H194.672V36.1864H199.387V35.3393H195.691V35.3421Z" fill="#A8A8AB"/>
<path d="M207.429 35.3421C207.247 35.0493 207.068 34.7736 206.887 34.5064C206.705 34.2392 206.526 33.9975 206.353 33.773C206.18 33.5569 206.043 33.375 205.93 33.2386C206.421 33.0737 206.802 32.8321 207.06 32.4966C207.318 32.1697 207.44 31.7718 207.44 31.2971C207.44 30.5637 207.173 30.0037 206.64 29.6313C206.106 29.2589 205.322 29.0713 204.303 29.0713C204.002 29.0713 203.681 29.0883 203.329 29.1054C202.974 29.131 202.648 29.1821 202.364 29.2447V36.192H203.38V33.4404H204.587C204.684 33.4404 204.777 33.4319 204.862 33.4233C204.999 33.5882 205.146 33.7673 205.311 33.9748C205.476 34.1823 205.646 34.4154 205.811 34.6485C205.984 34.8901 206.146 35.1488 206.31 35.4075C206.475 35.6747 206.628 35.9334 206.767 36.192H207.889C207.755 35.922 207.599 35.6377 207.429 35.3421ZM205.765 32.3744C205.567 32.4682 205.334 32.5393 205.05 32.5734C204.774 32.599 204.456 32.616 204.102 32.616H203.378V29.9667C203.61 29.9497 203.945 29.9326 204.377 29.9326C204.652 29.9326 204.911 29.9582 205.152 30.0008C205.393 30.0349 205.609 30.1032 205.782 30.2083C205.964 30.3107 206.109 30.45 206.214 30.6319C206.316 30.8053 206.37 31.0298 206.37 31.2885C206.37 31.5728 206.319 31.8059 206.214 31.9793C206.109 32.1498 205.953 32.2806 205.765 32.3744Z" fill="#A8A8AB"/>
<path d="M209.918 29.1479V30.0036H212.212V36.1919H213.237V30.0036H215.531V29.1479H209.918Z" fill="#A8A8AB"/>
<path d="M218.288 29.1479V36.1891H219.304V29.1479H218.288Z" fill="#A8A8AB"/>
<path d="M227.005 33.574C226.903 33.3324 226.755 33.1334 226.556 32.9685C226.366 32.7951 226.133 32.6501 225.875 32.5279C225.617 32.4085 225.324 32.2863 225.003 32.1555C224.779 32.0788 224.58 31.9992 224.39 31.9139C224.2 31.8371 224.038 31.7405 223.899 31.6467C223.76 31.5529 223.649 31.4307 223.572 31.3027C223.496 31.1805 223.459 31.0185 223.459 30.828C223.459 30.6546 223.493 30.5096 223.572 30.3874C223.641 30.2566 223.746 30.1543 223.865 30.0776C223.995 30.0008 224.14 29.9298 224.313 29.8956C224.478 29.853 224.657 29.8359 224.856 29.8359C225.245 29.8359 225.58 29.8786 225.872 29.9582C226.165 30.0434 226.38 30.1316 226.528 30.2169L226.854 29.4152C226.69 29.3129 226.423 29.2077 226.062 29.1224C225.702 29.0286 225.296 28.9832 224.856 28.9832C224.098 28.9832 223.493 29.1566 223.061 29.5005C222.621 29.8445 222.406 30.3277 222.406 30.9417C222.406 31.243 222.457 31.4932 222.562 31.7007C222.655 31.9167 222.795 32.0987 222.976 32.2436C223.149 32.4 223.357 32.5279 223.598 32.6416C223.831 32.7525 224.089 32.8576 224.356 32.9429C224.58 33.0282 224.805 33.1078 225.012 33.1845C225.219 33.2698 225.401 33.3665 225.563 33.4773C225.727 33.5882 225.855 33.719 225.943 33.8753C226.045 34.0316 226.091 34.2107 226.091 34.4268C226.091 35.1346 225.557 35.4871 224.495 35.4871C224.013 35.4871 223.607 35.4274 223.28 35.3222C222.954 35.2113 222.704 35.1147 222.548 35.0294L222.238 35.8395C222.315 35.8822 222.428 35.9248 222.565 35.9874C222.695 36.0471 222.857 36.0982 223.047 36.1522C223.237 36.2034 223.453 36.246 223.695 36.283C223.936 36.3171 224.203 36.3427 224.495 36.3427C225.341 36.3427 225.994 36.1693 226.46 35.8424C226.925 35.507 227.167 35.0322 227.167 34.4182C227.167 34.0913 227.107 33.8071 227.005 33.574Z" fill="#A8A8AB"/>
<path d="M231.099 35.3421V32.9004H234.151V32.0817H231.099V29.9838H234.528V29.1453H230.08V36.1864H234.787V35.3393H231.099V35.3421Z" fill="#A8A8AB"/>
<path d="M81.669 6.93839C82.0182 6.93839 82.1942 7.10893 82.1942 7.44436V9.69857C82.1942 10.0511 82.021 10.2273 81.669 10.2273H71.0708C70.4518 10.2273 69.9408 10.2756 69.5348 10.3751C69.1317 10.4746 68.808 10.6451 68.5724 10.8811C68.3339 11.1199 68.1636 11.4382 68.0585 11.8362C67.9563 12.2342 67.9052 12.743 67.9052 13.3542V16.6232C67.9052 17.2372 67.9563 17.7488 68.0585 18.1553C68.1636 18.5618 68.3339 18.883 68.5724 19.1218C68.8109 19.3606 69.1317 19.5283 69.5348 19.6278C69.9408 19.7273 70.4518 19.7785 71.0708 19.7785H81.669C82.0182 19.7785 82.1942 19.9462 82.1942 20.2844V22.5415C82.1942 22.8798 82.021 23.0475 81.669 23.0475H70.9288C69.7222 23.0475 68.6973 22.9394 67.8569 22.7262C67.0137 22.513 66.3295 22.1634 65.7958 21.6802C65.2649 21.1969 64.8759 20.5659 64.6289 19.7927C64.3819 19.0195 64.2599 18.0786 64.2599 16.9728V13.013C64.2599 11.9101 64.3848 10.972 64.6289 10.2045C64.8731 9.43704 65.2649 8.81167 65.7958 8.32843C66.3295 7.84518 67.0137 7.49269 67.8569 7.26812C68.6973 7.0464 69.7222 6.93269 70.9288 6.93269H81.669V6.93839Z" fill="white"/>
<path d="M86.9367 6.93887C87.1894 6.93887 87.3824 7.02982 87.5074 7.21459L93.8668 15.5236L100.275 7.21459C100.402 7.02982 100.593 6.93887 100.845 6.93887H103.965C104.09 6.93887 104.178 6.99003 104.227 7.08952C104.272 7.18901 104.258 7.29419 104.178 7.39937L95.6271 18.1274V22.5476C95.6271 22.8859 95.451 23.0536 95.1018 23.0536H92.5296C92.1634 23.0536 91.9817 22.8859 91.9817 22.5476V18.1274L83.527 7.39937C83.4475 7.29135 83.4276 7.18901 83.4674 7.08952C83.5071 6.99003 83.598 6.93887 83.7428 6.93887H86.9367Z" fill="white"/>
<path d="M120.515 6.93888C122.151 6.93888 123.315 7.25441 124.005 7.88263C124.694 8.51084 125.041 9.46311 125.041 10.7366V11.8424C125.041 13.1301 124.53 14.1051 123.516 14.7646C124.612 15.3786 125.16 16.3678 125.16 17.7351V19.0711C125.16 19.6851 125.086 20.2366 124.947 20.7284C124.802 21.2202 124.569 21.638 124.243 21.982C123.916 22.3288 123.485 22.5931 122.946 22.7751C122.406 22.9598 121.739 23.0508 120.944 23.0508H106.797C106.32 23.0508 106.082 22.8205 106.082 22.36V7.62678C106.082 7.16628 106.32 6.93603 106.797 6.93603H120.515V6.93888ZM109.724 13.6361H119.49C120.282 13.6361 120.825 13.5195 121.112 13.2893C121.395 13.059 121.54 12.7207 121.54 12.2773V11.4956C121.54 11.0209 121.401 10.6712 121.123 10.4495C120.845 10.2278 120.396 10.1169 119.777 10.1169H110.036C109.832 10.1169 109.727 10.2164 109.727 10.4154V13.6361H109.724ZM109.724 19.5771C109.724 19.7761 109.829 19.8756 110.033 19.8756H119.8C120.433 19.8756 120.887 19.7647 121.157 19.5402C121.427 19.3185 121.56 18.9603 121.56 18.4685V17.593C121.56 17.1183 121.412 16.7573 121.12 16.5099C120.825 16.2655 120.282 16.1433 119.49 16.1433H109.724V19.5771Z" fill="white"/>
<path d="M144.926 6.93885C145.292 6.93885 145.474 7.1094 145.474 7.44483V9.6308C145.474 9.96907 145.292 10.1368 144.926 10.1368H134.518C133.899 10.1368 133.388 10.1851 132.982 10.2846C132.576 10.3841 132.25 10.5547 132.006 10.7906C131.759 11.0294 131.588 11.3506 131.495 11.7571C131.398 12.1636 131.35 12.6667 131.35 13.2637V13.4939H144.807C145.156 13.4939 145.332 13.6645 145.332 13.9999V15.8192C145.332 16.1574 145.156 16.3252 144.807 16.3252H131.35V16.7146C131.35 17.3116 131.398 17.8175 131.495 18.2212C131.591 18.6277 131.761 18.9517 132.006 19.1877C132.253 19.4264 132.576 19.5942 132.982 19.6937C133.388 19.7931 133.899 19.8443 134.518 19.8443H144.926C145.292 19.8443 145.474 20.012 145.474 20.3503V22.5363C145.474 22.8745 145.292 23.0422 144.926 23.0422H134.447C133.241 23.0422 132.216 22.9342 131.375 22.721C130.532 22.5078 129.848 22.1582 129.314 21.6749C128.783 21.1917 128.394 20.5607 128.147 19.7875C127.9 19.0143 127.778 18.0734 127.778 16.9676V13.0078C127.778 11.9049 127.903 10.9668 128.147 10.1993C128.394 9.43182 128.783 8.80645 129.314 8.32321C129.848 7.83996 130.532 7.48748 131.375 7.26292C132.216 7.04119 133.241 6.92749 134.447 6.92749H144.926V6.93885Z" fill="white"/>
<path d="M161.719 6.93882C163.545 6.93882 164.854 7.33964 165.649 8.13557C166.444 8.93434 166.841 10.114 166.841 11.6803V12.9907C166.841 14.3125 166.563 15.3529 166.006 16.1205C165.45 16.888 164.547 17.3797 163.292 17.5929L167.363 22.4737C167.443 22.5504 167.466 22.6641 167.437 22.8176C167.403 22.9711 167.278 23.0479 167.054 23.0479H163.982C163.775 23.0479 163.633 23.0252 163.553 22.9797C163.474 22.9342 163.394 22.8574 163.315 22.7494L159.55 17.9625H151.857V22.5419C151.857 22.8802 151.683 23.0479 151.331 23.0479H148.759C148.396 23.0479 148.211 22.8802 148.211 22.5419V7.62388C148.211 7.16338 148.45 6.93313 148.927 6.93313H161.719V6.93882ZM151.857 15.1568H160.978C161.79 15.1568 162.361 14.9891 162.693 14.6508C163.028 14.3126 163.193 13.798 163.193 13.1073V12.1408C163.193 11.45 163.025 10.9355 162.693 10.6001C162.361 10.2618 161.788 10.0941 160.978 10.0941H152.166C151.962 10.0941 151.857 10.1851 151.857 10.3699V15.1568Z" fill="white"/>
<path d="M187.61 6.93887C187.973 6.93887 188.158 7.10942 188.158 7.44484V9.69905C188.158 10.0515 187.976 10.2278 187.61 10.2278H180.132V22.542C180.132 22.8802 179.956 23.0479 179.607 23.0479H177.012C176.663 23.0479 176.487 22.8802 176.487 22.542V10.2306H169.008C168.642 10.2306 168.461 10.0544 168.461 9.70188V7.44769C168.461 7.10942 168.642 6.94171 169.008 6.94171H187.61V6.93887Z" fill="white"/>
<path d="M193.393 6.93887C193.742 6.93887 193.918 7.10942 193.918 7.44485V22.5448C193.918 22.8831 193.745 23.0508 193.393 23.0508H190.82C190.457 23.0508 190.272 22.8831 190.272 22.5448V7.44485C190.272 7.10657 190.454 6.93887 190.82 6.93887H193.393Z" fill="white"/>
<path d="M213.639 6.93888C213.988 6.93888 214.164 7.10943 214.164 7.44485V9.63082C214.164 9.96909 213.988 10.1368 213.639 10.1368H201.706C201.246 10.1368 200.92 10.2505 200.73 10.4808C200.54 10.711 200.446 11.0265 200.446 11.4245V12.2062C200.446 13.0647 200.857 13.4968 201.684 13.4968H210.615C211.995 13.4968 213.037 13.8379 213.735 14.5201C214.434 15.2023 214.783 16.1802 214.783 17.4537V19.2957C214.783 20.4157 214.442 21.3225 213.761 22.0132C213.077 22.704 212.015 23.0479 210.57 23.0479H197.374C197.011 23.0479 196.826 22.8802 196.826 22.542V20.356C196.826 20.0177 197.008 19.85 197.374 19.85H209.88C210.34 19.85 210.666 19.7335 210.857 19.5032C211.047 19.273 211.141 18.9603 211.141 18.5595V17.6157C211.141 16.7573 210.729 16.328 209.903 16.328H200.971C199.591 16.328 198.549 15.9869 197.851 15.3047C197.153 14.6225 196.803 13.6446 196.803 12.3683V10.6883C196.803 9.56829 197.144 8.6615 197.825 7.97075C198.51 7.27999 199.571 6.93603 201.016 6.93603H213.639V6.93888Z" fill="white"/>
<path d="M234.452 6.93885C234.819 6.93885 235 7.1094 235 7.44483V9.6308C235 9.96907 234.819 10.1368 234.452 10.1368H224.045C223.426 10.1368 222.915 10.1851 222.509 10.2846C222.103 10.3841 221.776 10.5547 221.532 10.7906C221.285 11.0294 221.115 11.3506 221.021 11.7571C220.927 12.1636 220.876 12.6667 220.876 13.2637V13.4939H234.333C234.682 13.4939 234.858 13.6645 234.858 13.9999V15.8192C234.858 16.1574 234.682 16.3252 234.333 16.3252H220.876V16.7146C220.876 17.3116 220.924 17.8175 221.021 18.2212C221.117 18.6277 221.288 18.9517 221.532 19.1877C221.779 19.4264 222.103 19.5942 222.509 19.6937C222.915 19.7931 223.426 19.8443 224.045 19.8443H234.452C234.819 19.8443 235 20.012 235 20.3503V22.5363C235 22.8745 234.819 23.0422 234.452 23.0422H223.974C222.767 23.0422 221.742 22.9342 220.902 22.721C220.058 22.5078 219.374 22.1582 218.841 21.6749C218.31 21.1917 217.921 20.5607 217.674 19.7875C217.427 19.0143 217.305 18.0734 217.305 16.9676V13.0078C217.305 11.9049 217.43 10.9668 217.674 10.1993C217.918 9.43182 218.31 8.80645 218.841 8.32321C219.374 7.83996 220.058 7.48748 220.902 7.26292C221.742 7.04119 222.767 6.92749 223.974 6.92749H234.452V6.93885Z" fill="white"/>
</svg>
