<svg width="161" height="123" viewBox="0 0 161 123" fill="none" xmlns="http://www.w3.org/2000/svg">
<path d="M130.709 55.5208L81.6664 46.0311C79.9424 48.8897 76.5023 50.4596 73.0232 49.7567C70.293 49.2724 68.14 47.5073 67.0635 45.1876C66.3068 43.6489 66.0572 41.8447 66.377 40.0171C67.2897 35.5104 71.6503 32.5112 76.1825 33.4172C79.6772 34.1279 82.2826 36.8226 82.8053 40.2045L129.009 49.0772L116.442 3.36247C116.442 3.36247 116.036 3.20628 115.248 2.94072C115.217 2.94072 115.155 2.94074 115.124 2.9095C106.839 1.27711 94.3348 0.238281 80.3559 0.238281C66.5174 0.238281 54.1377 1.24585 45.8533 2.847C45.8221 2.87824 45.7597 2.87822 45.7597 2.87822C44.8158 3.14378 44.2854 3.36247 44.2854 3.36247L41.3523 14.1097H41.3835L93.0788 23.6307H93.11C94.0227 22.092 95.4659 20.897 97.1274 20.2565C98.5549 19.7098 100.154 19.5458 101.753 19.8816C104.483 20.4127 106.675 22.256 107.76 24.6382C108.056 25.2787 108.275 25.927 108.399 26.6299C108.587 27.6531 108.524 28.5591 108.306 29.6447C108.181 30.3867 107.963 31.0896 107.635 31.7301C107.51 31.9957 107.385 32.2456 107.245 32.5033H107.183C105.459 35.3776 102.112 36.9475 98.5549 36.2133C95.341 35.6666 92.9228 33.261 92.1818 30.2617C92.0882 30.043 92.0257 29.8087 91.9945 29.59L39.7844 19.8816L31.5936 49.4443L79.7396 58.4107H79.8176C80.5587 57.1532 81.6664 56.0988 82.9847 55.4271C84.5995 54.5445 86.5262 54.2009 88.4452 54.607C91.9321 55.2943 94.561 58.028 95.0992 61.3787C95.2708 62.3394 95.2084 63.3547 95.0368 64.3623C94.8184 65.3698 94.522 66.3852 93.9213 67.2209H93.8589C92.1818 70.0639 88.804 71.6651 85.2781 70.9621C81.8146 70.3217 79.2404 67.6192 78.7177 64.2998L30.3689 55.3646L0.484375 64.62C0.484375 64.62 0.515598 64.6513 0.578004 64.6513C1.28787 65.0418 6.55335 67.8692 15.2277 71.1886C18.2232 72.3211 21.5697 73.5162 25.3141 74.6565C28.1691 75.5391 31.2894 76.4295 34.5111 77.2652C34.8855 77.3589 35.2522 77.4526 35.6422 77.5307C35.6422 77.5307 35.6734 77.5307 35.689 77.5464C30.3377 82.2092 26.9522 89.0902 26.9522 96.7601C26.9522 110.819 38.3256 122.207 52.3669 122.207C64.7934 122.207 75.1294 113.287 77.3292 101.485L84.3888 105.305C87.8836 115.154 97.2834 122.207 108.329 122.207C122.37 122.207 133.744 110.819 133.744 96.7601C133.744 89.0824 130.358 82.2014 124.992 77.5464C125.116 77.5151 125.226 77.4839 125.35 77.4526C125.631 77.3902 125.943 77.3277 126.216 77.2652C129.493 76.4295 132.535 75.5391 135.382 74.6565C139.134 73.5083 142.504 72.3133 145.468 71.1886C154.174 67.877 159.432 65.0496 160.134 64.6513H160.149C160.181 64.62 160.212 64.62 160.212 64.62L130.709 55.5208ZM52.3591 115.537C42.0076 115.537 33.6296 107.117 33.6296 96.7523C33.6296 89.1215 38.1618 82.5685 44.691 79.6317C45.1747 79.7255 45.6349 79.8192 46.1029 79.9285C47.1716 80.1004 48.2247 80.2566 49.2856 80.5065C49.348 80.5065 49.3792 80.5377 49.4417 80.5377H49.4729C49.8629 80.6002 50.3231 80.694 50.6976 80.7565C50.7912 80.7565 50.8848 80.7877 50.9784 80.7877H51.0252C51.0252 80.7877 51.618 80.8345 51.7273 80.8345C52.1017 80.897 52.6555 80.9595 53.2952 81.0533C53.5136 81.0845 53.7477 81.0845 54.0051 81.1158C54.2547 81.147 54.5199 81.1782 54.8085 81.2095C55.6432 81.3032 56.5793 81.3969 57.6324 81.475C57.9912 81.5375 58.3891 81.6 58.7635 81.6312C59.6762 81.7562 60.6591 81.8499 61.6186 81.9437C62.4533 82.053 63.2957 82.1155 64.1616 82.1467C68.413 85.5834 71.1276 90.832 71.1276 96.7367C71.1198 107.117 62.7263 115.537 52.3591 115.537ZM82.9301 95.4948L77.4228 92.6049C76.8456 88.9574 75.4804 85.5833 73.499 82.6466C73.8735 82.6466 74.2479 82.6622 74.6302 82.6622C74.9422 82.6622 75.2386 82.6934 75.5272 82.6934C76.5335 82.7247 77.5476 82.7247 78.5539 82.7247C79.0844 82.7247 79.5758 82.7247 80.0594 82.6934H80.6367C81.1827 82.7247 81.7834 82.7247 82.3607 82.7247C83.2421 82.7247 84.1626 82.7247 85.0909 82.6934C85.5434 82.6934 86.0348 82.6622 86.4872 82.6622C86.7056 82.6466 86.9241 82.631 87.1659 82.6466C84.6931 86.3566 83.1719 90.7539 82.9301 95.4948ZM127.082 96.7523C127.082 107.117 118.689 115.537 108.321 115.537C97.9699 115.537 89.5919 107.117 89.5919 96.7523C89.5919 90.8476 92.3066 85.5989 96.5424 82.1623C98.3911 82.0842 100.216 81.8811 101.987 81.6156C102.362 81.5843 102.721 81.5531 103.072 81.4906C103.462 81.4594 103.875 81.4438 104.234 81.4126C105.24 81.2876 106.098 81.1938 106.839 81.1313C107.768 81.0064 108.47 80.9127 108.961 80.8502C109.023 80.8502 109.18 80.8033 109.242 80.8033C109.538 80.8033 109.663 80.8033 109.663 80.8033H109.726C109.788 80.8033 109.85 80.8033 109.913 80.7721C110.303 80.7409 110.732 80.6159 111.247 80.5534C111.309 80.5534 111.372 80.5221 111.434 80.5221C112.518 80.2722 113.524 80.116 114.601 79.9442C115.069 79.8348 115.529 79.7255 115.997 79.6317C122.534 82.5529 127.082 89.1058 127.082 96.7523Z" fill="#BAFF00"/>
<path d="M130.709 55.5208L81.6664 46.0311C79.9424 48.8897 76.5023 50.4596 73.0232 49.7567C70.293 49.2724 68.14 47.5073 67.0635 45.1876C66.3068 43.6489 66.0572 41.8447 66.377 40.0171C67.2897 35.5104 71.6503 32.5112 76.1825 33.4172C79.6772 34.1279 82.2826 36.8226 82.8053 40.2045L129.009 49.0772L116.442 3.36247C116.442 3.36247 116.036 3.20628 115.248 2.94072C115.217 2.94072 115.155 2.94074 115.124 2.9095C106.839 1.27711 94.3348 0.238281 80.3559 0.238281C66.5174 0.238281 54.1377 1.24585 45.8533 2.847C45.8221 2.87824 45.7597 2.87822 45.7597 2.87822C44.8158 3.14378 44.2854 3.36247 44.2854 3.36247L41.3523 14.1097H41.3835L93.0788 23.6307H93.11C94.0227 22.092 95.4659 20.897 97.1274 20.2565C98.5549 19.7098 100.154 19.5458 101.753 19.8816C104.483 20.4127 106.675 22.256 107.76 24.6382C108.056 25.2787 108.275 25.927 108.399 26.6299C108.587 27.6531 108.524 28.5591 108.306 29.6447C108.181 30.3867 107.963 31.0896 107.635 31.7301C107.51 31.9957 107.385 32.2456 107.245 32.5033H107.183C105.459 35.3776 102.112 36.9475 98.5549 36.2133C95.341 35.6666 92.9228 33.261 92.1818 30.2617C92.0882 30.043 92.0257 29.8087 91.9945 29.59L39.7844 19.8816L31.5936 49.4443L79.7396 58.4107H79.8176C80.5587 57.1532 81.6664 56.0988 82.9847 55.4271C84.5995 54.5445 86.5262 54.2009 88.4452 54.607C91.9321 55.2943 94.561 58.028 95.0992 61.3787C95.2708 62.3394 95.2084 63.3547 95.0368 64.3623C94.8184 65.3698 94.522 66.3852 93.9213 67.2209H93.8589C92.1818 70.0639 88.804 71.6651 85.2781 70.9621C81.8146 70.3217 79.2404 67.6192 78.7177 64.2998L30.3689 55.3646L0.484375 64.62C0.484375 64.62 0.515598 64.6513 0.578004 64.6513C1.28787 65.0418 6.55335 67.8692 15.2277 71.1886C18.2232 72.3211 21.5697 73.5162 25.3141 74.6565C28.1691 75.5391 31.2894 76.4295 34.5111 77.2652C34.8855 77.3589 35.2522 77.4526 35.6422 77.5307C35.6422 77.5307 35.6734 77.5307 35.689 77.5464C30.3377 82.2092 26.9522 89.0902 26.9522 96.7601C26.9522 110.819 38.3256 122.207 52.3669 122.207C64.7934 122.207 75.1294 113.287 77.3292 101.485L84.3888 105.305C87.8836 115.154 97.2834 122.207 108.329 122.207C122.37 122.207 133.744 110.819 133.744 96.7601C133.744 89.0824 130.358 82.2014 124.992 77.5464C125.116 77.5151 125.226 77.4839 125.35 77.4526C125.631 77.3902 125.943 77.3277 126.216 77.2652C129.493 76.4295 132.535 75.5391 135.382 74.6565C139.134 73.5083 142.504 72.3133 145.468 71.1886C154.174 67.877 159.432 65.0496 160.134 64.6513H160.149C160.181 64.62 160.212 64.62 160.212 64.62L130.709 55.5208ZM52.3591 115.537C42.0076 115.537 33.6296 107.117 33.6296 96.7523C33.6296 89.1215 38.1618 82.5685 44.691 79.6317C45.1747 79.7255 45.6349 79.8192 46.1029 79.9285C47.1716 80.1004 48.2247 80.2566 49.2856 80.5065C49.348 80.5065 49.3792 80.5377 49.4417 80.5377H49.4729C49.8629 80.6002 50.3231 80.694 50.6976 80.7565C50.7912 80.7565 50.8848 80.7877 50.9784 80.7877H51.0252C51.0252 80.7877 51.618 80.8345 51.7273 80.8345C52.1017 80.897 52.6555 80.9595 53.2952 81.0533C53.5136 81.0845 53.7477 81.0845 54.0051 81.1158C54.2547 81.147 54.5199 81.1782 54.8085 81.2095C55.6432 81.3032 56.5793 81.3969 57.6324 81.475C57.9912 81.5375 58.3891 81.6 58.7635 81.6312C59.6762 81.7562 60.6591 81.8499 61.6186 81.9437C62.4533 82.053 63.2957 82.1155 64.1616 82.1467C68.413 85.5834 71.1276 90.832 71.1276 96.7367C71.1198 107.117 62.7263 115.537 52.3591 115.537ZM82.9301 95.4948L77.4228 92.6049C76.8456 88.9574 75.4804 85.5833 73.499 82.6466C73.8735 82.6466 74.2479 82.6622 74.6302 82.6622C74.9422 82.6622 75.2386 82.6934 75.5272 82.6934C76.5335 82.7247 77.5476 82.7247 78.5539 82.7247C79.0844 82.7247 79.5758 82.7247 80.0594 82.6934H80.6367C81.1827 82.7247 81.7834 82.7247 82.3607 82.7247C83.2421 82.7247 84.1626 82.7247 85.0909 82.6934C85.5434 82.6934 86.0348 82.6622 86.4872 82.6622C86.7056 82.6466 86.9241 82.631 87.1659 82.6466C84.6931 86.3566 83.1719 90.7539 82.9301 95.4948ZM127.082 96.7523C127.082 107.117 118.689 115.537 108.321 115.537C97.9699 115.537 89.5919 107.117 89.5919 96.7523C89.5919 90.8476 92.3066 85.5989 96.5424 82.1623C98.3911 82.0842 100.216 81.8811 101.987 81.6156C102.362 81.5843 102.721 81.5531 103.072 81.4906C103.462 81.4594 103.875 81.4438 104.234 81.4126C105.24 81.2876 106.098 81.1938 106.839 81.1313C107.768 81.0064 108.47 80.9127 108.961 80.8502C109.023 80.8502 109.18 80.8033 109.242 80.8033C109.538 80.8033 109.663 80.8033 109.663 80.8033H109.726C109.788 80.8033 109.85 80.8033 109.913 80.7721C110.303 80.7409 110.732 80.6159 111.247 80.5534C111.309 80.5534 111.372 80.5221 111.434 80.5221C112.518 80.2722 113.524 80.116 114.601 79.9442C115.069 79.8348 115.529 79.7255 115.997 79.6317C122.534 82.5529 127.082 89.1058 127.082 96.7523Z" fill="#BAFF00"/>
</svg>
