<svg width="235" height="46" viewBox="0 0 235 46" fill="none" xmlns="http://www.w3.org/2000/svg">
<path d="M47.3953 20.9249L29.5461 17.4712C28.9187 18.5116 27.6666 19.0829 26.4004 18.8271C25.4067 18.6509 24.6232 18.0084 24.2314 17.1642C23.956 16.6042 23.8651 15.9475 23.9815 15.2824C24.3137 13.6422 25.9007 12.5506 27.5502 12.8804C28.8221 13.139 29.7704 14.1197 29.9606 15.3506L46.7763 18.5798L42.2026 1.94198C42.2026 1.94198 42.055 1.88513 41.7682 1.78848C41.7569 1.78848 41.7342 1.78849 41.7228 1.77712C38.7077 1.18301 34.1567 0.804932 29.0691 0.804932C24.0326 0.804932 19.527 1.17164 16.512 1.75437C16.5006 1.76574 16.4779 1.76574 16.4779 1.76574C16.1344 1.86238 15.9413 1.94198 15.9413 1.94198L14.8738 5.85341H14.8852L33.6996 9.31855H33.711C34.0432 8.75856 34.5684 8.32364 35.1731 8.09055C35.6927 7.89156 36.2747 7.83187 36.8567 7.95411C37.8503 8.1474 38.6481 8.81827 39.0427 9.68526C39.1506 9.91836 39.2301 10.1543 39.2756 10.4101C39.3437 10.7825 39.321 11.1122 39.2415 11.5074C39.196 11.7774 39.1166 12.0332 38.9973 12.2663C38.9519 12.363 38.9065 12.454 38.8554 12.5478H38.8326C38.2052 13.5938 36.9873 14.1652 35.6926 13.898C34.523 13.699 33.6429 12.8235 33.3731 11.7319C33.3391 11.6523 33.3164 11.5671 33.305 11.4875L14.3032 7.95411L11.3222 18.7134L28.8448 21.9767H28.8732C29.1429 21.5191 29.5461 21.1353 30.0259 20.8908C30.6136 20.5696 31.3148 20.4445 32.0132 20.5924C33.2823 20.8425 34.2391 21.8374 34.4349 23.0569C34.4974 23.4065 34.4747 23.7761 34.4122 24.1428C34.3327 24.5095 34.2249 24.879 34.0062 25.1832H33.9835C33.3731 26.2179 32.1438 26.8006 30.8606 26.5448C29.6 26.3117 28.6631 25.3281 28.4729 24.12L10.8764 20.8681L0 24.2366C0 24.2366 0.0113635 24.248 0.034076 24.248C0.29243 24.3901 2.20879 25.4191 5.36583 26.6272C6.45603 27.0394 7.67398 27.4743 9.03673 27.8893C10.0758 28.2106 11.2115 28.5346 12.384 28.8388C12.5203 28.8729 12.6537 28.907 12.7956 28.9354C12.7956 28.9354 12.807 28.9354 12.8127 28.9411C10.8651 30.6381 9.63293 33.1425 9.63293 35.9339C9.63293 41.0506 13.7723 45.1952 18.8826 45.1952C23.4052 45.1952 27.167 41.9489 27.9676 37.6537L30.5369 39.0437C31.8088 42.6283 35.2299 45.1952 39.25 45.1952C44.3603 45.1952 48.4996 41.0506 48.4996 35.9339C48.4996 33.1396 47.2675 30.6353 45.3142 28.9411C45.3596 28.9297 45.3994 28.9184 45.4448 28.907C45.547 28.8843 45.6606 28.8615 45.76 28.8388C46.9524 28.5346 48.0596 28.2106 49.0959 27.8893C50.4614 27.4715 51.6879 27.0366 52.7668 26.6272C55.9351 25.422 57.8487 24.3929 58.1042 24.248H58.1099C58.1212 24.2366 58.1326 24.2366 58.1326 24.2366L47.3953 20.9249ZM18.8797 42.7676C15.1123 42.7676 12.0632 39.7032 12.0632 35.9311C12.0632 33.1538 13.7127 30.7689 16.089 29.7001C16.265 29.7342 16.4325 29.7683 16.6028 29.8081C16.9918 29.8706 17.375 29.9275 17.7612 30.0185C17.7839 30.0185 17.7952 30.0298 17.8179 30.0298H17.8293C17.9712 30.0526 18.1388 30.0867 18.275 30.1094C18.3091 30.1094 18.3432 30.1208 18.3772 30.1208H18.3943C18.3943 30.1208 18.61 30.1378 18.6498 30.1378C18.7861 30.1606 18.9876 30.1833 19.2204 30.2174C19.2999 30.2288 19.3851 30.2288 19.4788 30.2402C19.5696 30.2516 19.6662 30.2629 19.7712 30.2743C20.075 30.3084 20.4157 30.3425 20.7989 30.3709C20.9295 30.3937 21.0743 30.4164 21.2106 30.4278C21.5428 30.4733 21.9005 30.5074 22.2497 30.5415C22.5535 30.5813 22.8601 30.604 23.1752 30.6154C24.7225 31.8662 25.7105 33.7764 25.7105 35.9254C25.7077 39.7032 22.6529 42.7676 18.8797 42.7676ZM30.006 35.4734L28.0016 34.4217C27.7915 33.0942 27.2947 31.8661 26.5736 30.7973C26.7099 30.7973 26.8461 30.803 26.9853 30.803C27.0988 30.803 27.2067 30.8144 27.3118 30.8144C27.678 30.8257 28.0471 30.8258 28.4133 30.8258C28.6064 30.8258 28.7852 30.8257 28.9612 30.8144H29.1713C29.3701 30.8257 29.5887 30.8258 29.7988 30.8258C30.1196 30.8258 30.4546 30.8257 30.7924 30.8144C30.9571 30.8144 31.136 30.803 31.3006 30.803C31.3801 30.7973 31.4596 30.7916 31.5476 30.7973C30.6476 32.1476 30.094 33.748 30.006 35.4734ZM46.0751 35.9311C46.0751 39.7032 43.0203 42.7676 39.2472 42.7676C35.4797 42.7676 32.4306 39.7032 32.4306 35.9311C32.4306 33.7821 33.4186 31.8718 34.9602 30.6211C35.633 30.5927 36.2974 30.5187 36.9418 30.4221C37.0781 30.4107 37.2087 30.3994 37.3365 30.3766C37.4784 30.3653 37.6289 30.3596 37.7595 30.3482C38.1257 30.3027 38.438 30.2686 38.7077 30.2459C39.0456 30.2004 39.3011 30.1663 39.48 30.1435C39.5027 30.1435 39.5595 30.1265 39.5822 30.1265C39.69 30.1265 39.7355 30.1265 39.7355 30.1265H39.7582C39.7809 30.1265 39.8036 30.1265 39.8263 30.1151C39.9683 30.1037 40.1244 30.0582 40.3118 30.0355C40.3345 30.0355 40.3572 30.0241 40.3799 30.0241C40.7746 29.9332 41.1408 29.8763 41.5326 29.8138C41.7029 29.774 41.8704 29.7342 42.0408 29.7001C44.4199 30.7632 46.0751 33.1482 46.0751 35.9311Z" fill="#BAFF00"/>
<path d="M16.2256 40.8515C18.9369 42.3269 22.3296 41.3092 23.803 38.5945C25.2651 35.8684 24.2601 32.4715 21.5375 31.0076L16.2256 40.8515Z" fill="#BAFF00"/>
<path d="M36.5898 40.8515C39.3011 42.3269 42.6938 41.3092 44.1673 38.5945C45.6294 35.8684 44.6244 32.4715 41.9017 31.0076L36.5898 40.8515Z" fill="#BAFF00"/>
<path d="M28.1853 17.4371H25.8857V16.7548H26.6835V14.9384L25.9339 15.163V14.4353L26.973 14.0515H27.4415V16.7548H28.1853V17.4371Z" fill="#BAFF00"/>
<path d="M37.8042 10.9275C37.8042 11.9537 37.2477 12.6956 36.3307 12.6956C35.4137 12.6956 34.8516 11.9537 34.8516 10.9275C34.8516 9.90135 35.4137 9.15942 36.3307 9.15942C37.2477 9.15942 37.8042 9.90135 37.8042 10.9275ZM37.0462 10.9275C37.0462 10.342 36.7992 9.89282 36.325 9.89282C35.8481 9.89282 35.5982 10.342 35.5982 10.9275C35.5982 11.516 35.8452 11.9622 36.325 11.9622C36.7963 11.9622 37.0462 11.516 37.0462 10.9275Z" fill="#BAFF00"/>
<path d="M32.9018 23.5884C32.9018 24.6146 32.3454 25.3565 31.4284 25.3565C30.5114 25.3565 29.9492 24.6146 29.9492 23.5884C29.9492 22.5622 30.5114 21.8203 31.4284 21.8203C32.3454 21.8232 32.9018 22.5651 32.9018 23.5884ZM32.1438 23.5884C32.1438 23.0028 31.8968 22.5537 31.4227 22.5537C30.9457 22.5537 30.6959 23.0028 30.6959 23.5884C30.6959 24.1768 30.9429 24.6231 31.4227 24.6231C31.8968 24.6231 32.1438 24.1768 32.1438 23.5884Z" fill="#BAFF00"/>
<path d="M70.2487 35.8798C70.0926 35.9566 69.8598 36.0447 69.5503 36.1385C69.2409 36.2323 68.8519 36.2778 68.3863 36.2778C67.9803 36.2778 67.6198 36.2181 67.316 36.0788C67.015 35.9395 66.7567 35.7519 66.5494 35.5017C66.3507 35.2601 66.1945 34.9588 66.0923 34.612C65.9986 34.2681 65.9447 33.8871 65.9447 33.4636C65.9447 33.0315 65.9958 32.6449 66.1179 32.2896C66.2286 31.9456 66.4018 31.6415 66.6176 31.3998C66.8333 31.1582 67.1002 30.9678 67.4011 30.8399C67.7106 30.7091 68.057 30.6494 68.4431 30.6494C68.6248 30.6494 68.8036 30.6665 68.9853 30.692C69.167 30.7261 69.3289 30.7603 69.4765 30.8143C69.6326 30.8569 69.7604 30.9081 69.8825 30.9535C70.0046 31.0047 70.0982 31.0474 70.1579 31.0843L70.4503 30.2742C70.4077 30.2486 70.3282 30.206 70.2175 30.1519C70.1068 30.1008 69.9676 30.0496 69.7859 29.9871C69.6042 29.9359 69.397 29.8933 69.1472 29.8478C68.9058 29.8051 68.639 29.7881 68.338 29.7881C67.8639 29.7881 67.4153 29.8648 66.9923 30.0297C66.5693 30.1946 66.2002 30.4277 65.8879 30.7375C65.5699 31.0559 65.3201 31.4368 65.1299 31.8945C64.9482 32.3521 64.8545 32.878 64.8545 33.4664C64.8545 34.052 64.9397 34.5807 65.1043 35.0384C65.269 35.4961 65.5018 35.8855 65.8027 36.1953C66.1037 36.5052 66.4671 36.7383 66.8901 36.9032C67.3046 37.068 67.7702 37.1533 68.2869 37.1533C68.5793 37.1533 68.8547 37.1362 69.1046 37.1021C69.3544 37.068 69.5787 37.0254 69.7689 36.9799C69.9591 36.9287 70.1124 36.8776 70.243 36.8235C70.3736 36.7809 70.4588 36.7383 70.5014 36.7013L70.2487 35.8798Z" fill="#A8A8AB"/>
<path d="M77.729 29.953C77.4536 30.5045 77.1526 31.0673 76.8233 31.6444C76.4883 32.2129 76.1505 32.7672 75.8069 33.2931C75.4634 32.7672 75.117 32.2129 74.7905 31.6444C74.464 31.0673 74.1603 30.5045 73.8934 29.953H72.6953C73.0757 30.6267 73.4789 31.3175 73.9104 32.0253C74.3335 32.7331 74.7905 33.4409 75.2732 34.1658V36.997H76.2981V34.1459C76.7722 33.4296 77.2208 32.7217 77.6523 32.0139C78.0839 31.3147 78.487 30.6239 78.8589 29.9502H77.729V29.953Z" fill="#A8A8AB"/>
<path d="M86.462 33.8105C86.2037 33.5518 85.8687 33.3528 85.4371 33.2334C85.7551 33.114 86.005 32.9321 86.1952 32.682C86.3854 32.4318 86.4791 32.1134 86.4791 31.7325C86.4791 31.3886 86.4024 31.0929 86.2463 30.8513C86.0901 30.6182 85.8857 30.4278 85.6075 30.2828C85.3406 30.135 85.0198 30.0327 84.6507 29.973C84.2873 29.9133 83.8927 29.8792 83.4697 29.8792C83.322 29.8792 83.1687 29.8877 82.9955 29.8962C82.8224 29.8962 82.6605 29.9047 82.4874 29.9218C82.3142 29.9389 82.1438 29.9559 81.9792 29.973C81.806 29.99 81.6527 30.0156 81.5135 30.0497V36.8862C81.6498 36.9203 81.806 36.9459 81.9792 36.9629C82.1438 36.9885 82.3142 37.0056 82.4874 37.0141C82.6605 37.0311 82.8309 37.0397 83.0041 37.0482C83.1687 37.0567 83.3306 37.0567 83.4782 37.0567C84.6422 37.0567 85.4939 36.8748 86.0305 36.5223C86.5642 36.1698 86.8396 35.6326 86.8396 34.9333C86.8425 34.4472 86.7119 34.0777 86.462 33.8105ZM82.5243 30.7376C82.6463 30.7291 82.7741 30.7206 82.9217 30.712C83.0694 30.7035 83.2766 30.7035 83.535 30.7035C83.7933 30.7035 84.0432 30.7206 84.276 30.7632C84.5088 30.8058 84.7075 30.8655 84.8807 30.9536C85.0539 31.0304 85.1901 31.1441 85.2867 31.2806C85.3832 31.4284 85.4343 31.5904 85.4343 31.7979C85.4343 32.014 85.3832 32.1959 85.2867 32.3323C85.193 32.4801 85.0624 32.591 84.8977 32.6763C84.7331 32.7701 84.5428 32.8326 84.3214 32.8667C84.0886 32.9008 83.8558 32.9094 83.606 32.9094H82.5271V30.7376H82.5243ZM85.599 35.5786C85.4797 35.752 85.3151 35.8799 85.1078 35.9766C84.9091 36.0704 84.6678 36.1414 84.4009 36.1755C84.134 36.2096 83.8416 36.2352 83.5378 36.2352C83.3817 36.2352 83.2369 36.2267 83.1148 36.2267C82.9927 36.2267 82.882 36.2182 82.7968 36.2096C82.6946 36.2011 82.5981 36.2011 82.5214 36.1926V33.7081H83.8387C84.1312 33.7081 84.398 33.7337 84.6308 33.7764C84.8722 33.8105 85.0794 33.8787 85.2526 33.9753C85.4258 34.0691 85.5535 34.1999 85.6501 34.3563C85.7352 34.5211 85.7807 34.7087 85.7807 34.9418C85.7807 35.1977 85.721 35.4137 85.599 35.5786Z" fill="#A8A8AB"/>
<path d="M90.9801 36.1471V33.7053H94.0321V32.8866H90.9801V30.7888H94.4097V29.9502H89.9609V36.9913H94.6766V36.1442H90.9801V36.1471Z" fill="#A8A8AB"/>
<path d="M102.718 36.147C102.537 35.8542 102.355 35.5785 102.176 35.3113C101.997 35.0441 101.815 34.8025 101.642 34.5779C101.469 34.3619 101.333 34.1799 101.219 34.0435C101.71 33.8786 102.091 33.637 102.349 33.3016C102.608 32.9747 102.73 32.5767 102.73 32.102C102.73 31.3686 102.463 30.8086 101.929 30.4362C101.395 30.0638 100.612 29.8762 99.5925 29.8762C99.2916 29.8762 98.9708 29.8933 98.6187 29.9103C98.2638 29.9359 97.9373 29.9871 97.6534 30.0496V36.997H98.6698V34.2453H99.8764C99.9701 34.2453 100.067 34.2368 100.152 34.2283C100.291 34.3931 100.436 34.5722 100.6 34.7797C100.765 34.9872 100.935 35.2203 101.1 35.4534C101.273 35.695 101.435 35.9537 101.6 36.2124C101.764 36.4796 101.918 36.7383 102.057 36.997H103.178C103.045 36.7269 102.891 36.4427 102.718 36.147ZM101.055 33.1793C100.856 33.2731 100.623 33.3442 100.339 33.3783C100.064 33.4039 99.7458 33.421 99.3909 33.421H98.667V30.7717C98.8998 30.7546 99.2348 30.7375 99.6663 30.7375C99.9417 30.7375 100.2 30.7631 100.441 30.8058C100.683 30.8399 100.89 30.9081 101.072 31.0133C101.253 31.1156 101.39 31.2549 101.503 31.4368C101.605 31.6102 101.659 31.8348 101.659 32.0935C101.659 32.3777 101.608 32.6108 101.503 32.7842C101.39 32.9548 101.245 33.0855 101.055 33.1793Z" fill="#A8A8AB"/>
<path d="M110.157 34.3789C110.054 34.1373 109.907 33.9383 109.708 33.7734C109.518 33.6 109.285 33.4551 109.027 33.3328C108.76 33.2134 108.476 33.0912 108.155 32.9605C107.931 32.8837 107.723 32.8041 107.542 32.7188C107.352 32.6421 107.19 32.5454 107.051 32.4516C106.911 32.3578 106.801 32.2356 106.724 32.1077C106.647 31.9854 106.611 31.8234 106.611 31.6329C106.611 31.4595 106.645 31.3146 106.724 31.1923C106.792 31.0616 106.897 30.9592 107.017 30.8825C107.147 30.8057 107.292 30.7347 107.465 30.7006C107.63 30.6579 107.809 30.6409 108.007 30.6409C108.396 30.6409 108.731 30.6835 109.024 30.7631C109.316 30.8484 109.532 30.9365 109.68 31.0218L110.006 30.2202C109.833 30.1178 109.574 30.0126 109.214 29.9274C108.851 29.8336 108.447 29.7881 108.007 29.7881C107.249 29.7881 106.645 29.9615 106.207 30.3054C105.776 30.6494 105.56 31.1326 105.56 31.7467C105.56 32.048 105.611 32.2981 105.708 32.5056C105.81 32.7217 105.949 32.9036 106.131 33.0486C106.304 33.2049 106.511 33.3328 106.752 33.4465C106.985 33.5574 107.244 33.6626 107.502 33.7478C107.735 33.8331 107.959 33.9127 108.166 33.9895C108.374 34.0748 108.555 34.1714 108.717 34.2823C108.882 34.3931 109.01 34.5239 109.098 34.6802C109.191 34.8366 109.245 35.0157 109.245 35.2317C109.245 35.9395 108.711 36.292 107.65 36.292C107.167 36.292 106.761 36.2323 106.435 36.1271C106.108 36.0162 105.858 35.9196 105.702 35.8343L105.393 36.6445C105.469 36.6871 105.583 36.7298 105.711 36.7923C105.85 36.852 106.011 36.9032 106.202 36.9572C106.392 37.0083 106.608 37.051 106.849 37.0879C107.09 37.122 107.357 37.1476 107.65 37.1476C108.496 37.1476 109.149 36.9742 109.614 36.6473C110.08 36.3119 110.313 35.8372 110.313 35.2232C110.313 34.8963 110.262 34.612 110.157 34.3789Z" fill="#A8A8AB"/>
<path d="M114.251 36.1471V33.7053H117.303V32.8866H114.251V30.7888H117.681V29.9502H113.224V36.9913H117.939V36.1442H114.251V36.1471Z" fill="#A8A8AB"/>
<path d="M125.716 35.8798C125.559 35.9566 125.327 36.0447 125.026 36.1385C124.716 36.2323 124.327 36.2778 123.853 36.2778C123.447 36.2778 123.095 36.2181 122.786 36.0788C122.485 35.9395 122.226 35.7519 122.028 35.5017C121.82 35.2601 121.664 34.9588 121.571 34.612C121.468 34.2681 121.414 33.8871 121.414 33.4636C121.414 33.0315 121.474 32.6449 121.588 32.2896C121.698 31.9456 121.872 31.6415 122.087 31.3998C122.303 31.1582 122.57 30.9678 122.879 30.8399C123.18 30.7091 123.535 30.6494 123.921 30.6494C124.103 30.6494 124.282 30.6665 124.455 30.692C124.637 30.7261 124.799 30.7603 124.955 30.8143C125.102 30.8569 125.239 30.9081 125.361 30.9535C125.474 31.0047 125.568 31.0474 125.628 31.0843L125.929 30.2742C125.886 30.2486 125.809 30.206 125.696 30.1519C125.585 30.1008 125.437 30.0496 125.256 29.9871C125.074 29.9359 124.867 29.8933 124.625 29.8478C124.384 29.8051 124.109 29.7881 123.808 29.7881C123.334 29.7881 122.885 29.8648 122.462 30.0297C122.039 30.1946 121.67 30.4277 121.358 30.7375C121.04 31.0559 120.79 31.4368 120.608 31.8945C120.418 32.3521 120.324 32.878 120.324 33.4664C120.324 34.052 120.409 34.5807 120.574 35.0384C120.739 35.4961 120.972 35.8855 121.272 36.1953C121.573 36.5052 121.937 36.7383 122.36 36.9032C122.783 37.068 123.248 37.1533 123.757 37.1533C124.049 37.1533 124.324 37.1362 124.574 37.1021C124.833 37.068 125.048 37.0254 125.239 36.9799C125.429 36.9287 125.582 36.8776 125.713 36.8235C125.843 36.7809 125.929 36.7383 125.98 36.7013L125.716 35.8798Z" fill="#A8A8AB"/>
<path d="M133.291 29.9531V34.2597C133.291 34.6122 133.249 34.9163 133.161 35.1665C133.076 35.4251 132.954 35.6327 132.8 35.7975C132.653 35.9624 132.465 36.0818 132.25 36.1614C132.042 36.2381 131.801 36.2722 131.543 36.2722C131.026 36.2722 130.603 36.1159 130.285 35.7975C129.958 35.4792 129.794 34.9703 129.794 34.2625V29.956H128.777V34.3734C128.777 34.7713 128.828 35.1324 128.942 35.4706C129.053 35.8146 129.217 36.1017 129.442 36.3518C129.666 36.602 129.95 36.7924 130.305 36.9374C130.657 37.0767 131.071 37.1535 131.545 37.1535C132.02 37.1535 132.434 37.0767 132.778 36.9374C133.132 36.7896 133.416 36.602 133.649 36.3518C133.873 36.1017 134.038 35.8174 134.149 35.4706C134.26 35.1352 134.314 34.7713 134.314 34.3734V29.956H133.291V29.9531Z" fill="#A8A8AB"/>
<path d="M142.818 36.147C142.636 35.8542 142.457 35.5785 142.275 35.3113C142.094 35.0441 141.915 34.8025 141.742 34.5779C141.569 34.3619 141.432 34.1799 141.319 34.0435C141.818 33.8786 142.19 33.637 142.449 33.3016C142.707 32.9747 142.838 32.5767 142.838 32.102C142.838 31.3686 142.571 30.8086 142.026 30.4362C141.492 30.0638 140.708 29.8762 139.689 29.8762C139.397 29.8762 139.067 29.8933 138.715 29.9103C138.36 29.9359 138.042 29.9871 137.75 30.0496V36.997H138.766V34.2453H139.973C140.067 34.2453 140.163 34.2368 140.257 34.2283C140.387 34.3931 140.532 34.5722 140.705 34.7797C140.87 34.9872 141.032 35.2203 141.197 35.4534C141.37 35.695 141.532 35.9537 141.696 36.2124C141.861 36.4796 142.014 36.7383 142.153 36.997H143.275C143.144 36.7269 142.997 36.4427 142.818 36.147ZM141.154 33.1793C140.955 33.2731 140.722 33.3442 140.447 33.3783C140.163 33.4039 139.845 33.421 139.499 33.421H138.766V30.7717C138.999 30.7546 139.334 30.7375 139.774 30.7375C140.041 30.7375 140.299 30.7631 140.541 30.8058C140.782 30.8399 140.998 30.9081 141.171 31.0133C141.353 31.1156 141.498 31.2549 141.603 31.4368C141.705 31.6102 141.759 31.8348 141.759 32.0935C141.759 32.3777 141.708 32.6108 141.603 32.7842C141.498 32.9548 141.341 33.0855 141.154 33.1793Z" fill="#A8A8AB"/>
<path d="M146.048 29.9531V36.9943H147.064V29.9531H146.048Z" fill="#A8A8AB"/>
<path d="M149.823 29.9531V30.8088H152.114V36.9971H153.139V30.8088H155.43V29.9531H149.823Z" fill="#A8A8AB"/>
<path d="M162.677 29.953C162.411 30.5045 162.11 31.0673 161.772 31.6444C161.445 32.2129 161.107 32.7672 160.764 33.2931C160.42 32.7672 160.074 32.2129 159.748 31.6444C159.421 31.0673 159.117 30.5045 158.85 29.953H157.652C158.033 30.6267 158.436 31.3175 158.859 32.0253C159.29 32.7331 159.748 33.4409 160.23 34.1658V36.997H161.247V34.1459C161.729 33.4296 162.178 32.7217 162.609 32.0139C163.032 31.3147 163.438 30.6239 163.816 29.9502H162.677V29.953Z" fill="#A8A8AB"/>
<path d="M171.597 36.1471V33.7053H174.649V32.8866H171.597V30.7888H175.027V29.9502H170.578V36.9913H175.294V36.1442H171.597V36.1471Z" fill="#A8A8AB"/>
<path d="M182.681 35.155C182.258 34.524 181.809 33.8872 181.326 33.2306L183.62 29.9502H182.456L180.682 32.5739L178.882 29.9502H177.701L180.037 33.2732C179.572 33.9213 179.123 34.5581 178.709 35.1721C178.294 35.7946 177.925 36.3972 177.604 36.9942H178.734C178.837 36.7867 178.967 36.5621 179.123 36.3205C179.271 36.0703 179.433 35.8117 179.606 35.5445C179.771 35.2772 179.949 35.01 180.14 34.7428C180.33 34.4756 180.52 34.2255 180.69 33.9839C180.864 34.2255 181.043 34.4756 181.233 34.7428C181.423 35.01 181.602 35.2772 181.783 35.5445C181.957 35.8117 182.118 36.0703 182.266 36.3205C182.414 36.5621 182.542 36.7867 182.644 36.9942H183.791C183.467 36.3887 183.095 35.7775 182.681 35.155Z" fill="#A8A8AB"/>
<path d="M190.888 30.4447C190.338 30.0638 189.551 29.8762 188.526 29.8762C188.234 29.8762 187.905 29.8933 187.552 29.9103C187.198 29.9359 186.88 29.9871 186.596 30.0496V36.997H187.612V34.3818H188.421C188.929 34.3818 189.395 34.3391 189.801 34.2595C190.207 34.1828 190.551 34.052 190.834 33.8701C191.118 33.6882 191.334 33.4551 191.49 33.1623C191.638 32.878 191.715 32.5312 191.715 32.1276C191.715 31.3771 191.439 30.8143 190.888 30.4447ZM190.482 32.8183C190.38 33.0003 190.224 33.1452 190.034 33.2504C189.844 33.3527 189.602 33.4323 189.327 33.475C189.043 33.5176 188.734 33.5347 188.379 33.5347H187.612V30.7717C187.845 30.7546 188.171 30.7375 188.611 30.7375C188.887 30.7375 189.145 30.7631 189.386 30.8058C189.636 30.8399 189.852 30.9166 190.034 31.0218C190.224 31.1241 190.369 31.2634 190.474 31.4453C190.587 31.6187 190.639 31.8433 190.639 32.1105C190.639 32.3948 190.585 32.6364 190.482 32.8183Z" fill="#A8A8AB"/>
<path d="M195.691 36.1471V33.7053H198.743V32.8866H195.691V30.7888H199.121V29.9502H194.672V36.9913H199.388V36.1442H195.691V36.1471Z" fill="#A8A8AB"/>
<path d="M207.429 36.147C207.247 35.8542 207.068 35.5785 206.887 35.3113C206.705 35.0441 206.526 34.8025 206.353 34.5779C206.18 34.3619 206.043 34.1799 205.93 34.0435C206.421 33.8786 206.801 33.637 207.06 33.3016C207.318 32.9747 207.44 32.5767 207.44 32.102C207.44 31.3686 207.173 30.8086 206.64 30.4362C206.106 30.0638 205.322 29.8762 204.303 29.8762C204.002 29.8762 203.681 29.8933 203.329 29.9103C202.974 29.9359 202.648 29.9871 202.364 30.0496V36.997H203.38V34.2453H204.587C204.684 34.2453 204.777 34.2368 204.862 34.2283C204.999 34.3931 205.146 34.5722 205.311 34.7797C205.476 34.9872 205.646 35.2203 205.811 35.4534C205.984 35.695 206.146 35.9537 206.31 36.2124C206.475 36.4796 206.628 36.7383 206.767 36.997H207.889C207.755 36.7269 207.599 36.4427 207.429 36.147ZM205.765 33.1793C205.567 33.2731 205.334 33.3442 205.05 33.3783C204.774 33.4039 204.456 33.421 204.102 33.421H203.378V30.7717C203.61 30.7546 203.945 30.7375 204.377 30.7375C204.652 30.7375 204.911 30.7631 205.152 30.8058C205.393 30.8399 205.609 30.9081 205.782 31.0133C205.964 31.1156 206.109 31.2549 206.214 31.4368C206.316 31.6102 206.37 31.8348 206.37 32.0935C206.37 32.3777 206.319 32.6108 206.214 32.7842C206.109 32.9548 205.953 33.0855 205.765 33.1793Z" fill="#A8A8AB"/>
<path d="M209.918 29.9531V30.8088H212.212V36.9971H213.237V30.8088H215.531V29.9531H209.918Z" fill="#A8A8AB"/>
<path d="M218.288 29.9531V36.9943H219.304V29.9531H218.288Z" fill="#A8A8AB"/>
<path d="M227.005 34.3789C226.903 34.1373 226.755 33.9383 226.556 33.7734C226.366 33.6 226.133 33.4551 225.875 33.3328C225.617 33.2134 225.324 33.0912 225.003 32.9605C224.779 32.8837 224.58 32.8041 224.39 32.7188C224.2 32.6421 224.038 32.5454 223.899 32.4516C223.76 32.3578 223.649 32.2356 223.572 32.1077C223.496 31.9854 223.459 31.8234 223.459 31.6329C223.459 31.4595 223.493 31.3146 223.572 31.1923C223.641 31.0616 223.746 30.9592 223.865 30.8825C223.995 30.8057 224.14 30.7347 224.313 30.7006C224.478 30.6579 224.657 30.6409 224.856 30.6409C225.245 30.6409 225.58 30.6835 225.872 30.7631C226.164 30.8484 226.38 30.9365 226.528 31.0218L226.854 30.2202C226.69 30.1178 226.423 30.0126 226.062 29.9274C225.702 29.8336 225.296 29.7881 224.856 29.7881C224.098 29.7881 223.493 29.9615 223.061 30.3054C222.621 30.6494 222.406 31.1326 222.406 31.7467C222.406 32.048 222.457 32.2981 222.562 32.5056C222.655 32.7217 222.795 32.9036 222.976 33.0486C223.149 33.2049 223.357 33.3328 223.598 33.4465C223.831 33.5574 224.089 33.6626 224.356 33.7478C224.58 33.8331 224.805 33.9127 225.012 33.9895C225.219 34.0748 225.401 34.1714 225.563 34.2823C225.727 34.3931 225.855 34.5239 225.943 34.6802C226.045 34.8366 226.091 35.0157 226.091 35.2317C226.091 35.9395 225.557 36.292 224.495 36.292C224.012 36.292 223.606 36.2323 223.28 36.1271C222.953 36.0162 222.704 35.9196 222.548 35.8343L222.238 36.6445C222.315 36.6871 222.428 36.7298 222.565 36.7923C222.695 36.852 222.857 36.9032 223.047 36.9572C223.237 37.0083 223.453 37.051 223.694 37.0879C223.936 37.122 224.203 37.1476 224.495 37.1476C225.341 37.1476 225.994 36.9742 226.46 36.6473C226.925 36.3119 227.167 35.8372 227.167 35.2232C227.167 34.8963 227.107 34.612 227.005 34.3789Z" fill="#A8A8AB"/>
<path d="M231.098 36.1471V33.7053H234.15V32.8866H231.098V30.7888H234.528V29.9502H230.079V36.9913H234.786V36.1442H231.098V36.1471Z" fill="#A8A8AB"/>
<path d="M81.669 7.74332C82.0182 7.74332 82.1942 7.91386 82.1942 8.24929V10.5035C82.1942 10.856 82.021 11.0322 81.669 11.0322H71.0708C70.4519 11.0322 69.9408 11.0805 69.5348 11.18C69.1317 11.2795 68.8081 11.4501 68.5724 11.686C68.3339 11.9248 68.1636 12.2432 68.0585 12.6411C67.9563 13.0391 67.9052 13.5479 67.9052 14.1591V17.4281C67.9052 18.0421 67.9563 18.5538 68.0585 18.9603C68.1636 19.3668 68.3339 19.688 68.5724 19.9267C68.8109 20.1655 69.1317 20.3332 69.5348 20.4327C69.9408 20.5322 70.4519 20.5834 71.0708 20.5834H81.669C82.0182 20.5834 82.1942 20.7511 82.1942 21.0894V23.3464C82.1942 23.6847 82.021 23.8524 81.669 23.8524H70.9288C69.7222 23.8524 68.6973 23.7444 67.857 23.5312C67.0138 23.318 66.3296 22.9683 65.7958 22.4851C65.2649 22.0018 64.876 21.3708 64.629 20.5976C64.382 19.8244 64.2599 18.8835 64.2599 17.7777V13.818C64.2599 12.715 64.3848 11.777 64.629 11.0095C64.8731 10.242 65.2649 9.6166 65.7958 9.13336C66.3296 8.65011 67.0138 8.29762 67.857 8.07305C68.6973 7.85133 69.7222 7.73763 70.9288 7.73763H81.669V7.74332Z" fill="white"/>
<path d="M86.9367 7.7438C87.1894 7.7438 87.3825 7.83476 87.5074 8.01953L93.8669 16.3285L100.275 8.01953C100.402 7.83476 100.593 7.7438 100.845 7.7438H103.965C104.09 7.7438 104.178 7.79496 104.227 7.89445C104.272 7.99394 104.258 8.09913 104.178 8.2043L95.6271 18.9323V23.3526C95.6271 23.6908 95.4511 23.8586 95.1019 23.8586H92.5297C92.1634 23.8586 91.9817 23.6908 91.9817 23.3526V18.9323L83.527 8.2043C83.4475 8.09628 83.4276 7.99394 83.4674 7.89445C83.5071 7.79496 83.598 7.7438 83.7428 7.7438H86.9367Z" fill="white"/>
<path d="M120.515 7.74381C122.151 7.74381 123.315 8.05934 124.005 8.68756C124.694 9.31578 125.041 10.268 125.041 11.5415V12.6473C125.041 13.935 124.53 14.91 123.516 15.5695C124.612 16.1835 125.16 17.1727 125.16 18.54V19.8761C125.16 20.4901 125.086 21.0415 124.947 21.5333C124.802 22.0251 124.569 22.4429 124.243 22.7869C123.917 23.1337 123.485 23.3981 122.946 23.58C122.406 23.7648 121.739 23.8557 120.944 23.8557H106.797C106.32 23.8557 106.082 23.6255 106.082 23.165V8.43172C106.082 7.97121 106.32 7.74096 106.797 7.74096H120.515V7.74381ZM109.724 14.441H119.49C120.283 14.441 120.825 14.3244 121.112 14.0942C121.395 13.8639 121.54 13.5257 121.54 13.0822V12.3005C121.54 11.8258 121.401 11.4762 121.123 11.2544C120.845 11.0327 120.396 10.9218 119.777 10.9218H110.036C109.832 10.9218 109.727 11.0213 109.727 11.2203V14.441H109.724ZM109.724 20.3821C109.724 20.581 109.829 20.6805 110.034 20.6805H119.8C120.433 20.6805 120.887 20.5697 121.157 20.3451C121.427 20.1234 121.56 19.7652 121.56 19.2734V18.3979C121.56 17.9232 121.412 17.5622 121.12 17.3149C120.825 17.0704 120.283 16.9482 119.49 16.9482H109.724V20.3821Z" fill="white"/>
<path d="M144.926 7.74379C145.292 7.74379 145.474 7.91433 145.474 8.24976V10.4357C145.474 10.774 145.292 10.9417 144.926 10.9417H134.518C133.899 10.9417 133.388 10.9901 132.982 11.0895C132.576 11.189 132.25 11.3596 132.006 11.5955C131.759 11.8343 131.588 12.1555 131.495 12.562C131.398 12.9685 131.35 13.4716 131.35 14.0686V14.2988H144.807C145.156 14.2988 145.332 14.4694 145.332 14.8048V16.6241C145.332 16.9624 145.156 17.1301 144.807 17.1301H131.35V17.5195C131.35 18.1165 131.398 18.6225 131.495 19.0261C131.591 19.4326 131.761 19.7567 132.006 19.9926C132.253 20.2314 132.576 20.3991 132.982 20.4986C133.388 20.5981 133.899 20.6492 134.518 20.6492H144.926C145.292 20.6492 145.474 20.817 145.474 21.1552V23.3412C145.474 23.6795 145.292 23.8472 144.926 23.8472H134.447C133.241 23.8472 132.216 23.7392 131.375 23.526C130.532 23.3128 129.848 22.9631 129.314 22.4799C128.783 21.9966 128.394 21.3656 128.147 20.5924C127.9 19.8192 127.778 18.8783 127.778 17.7725V13.8128C127.778 12.7098 127.903 11.7718 128.147 11.0043C128.394 10.2367 128.783 9.61138 129.314 9.12814C129.848 8.64489 130.532 8.29241 131.375 8.06785C132.216 7.84612 133.241 7.73242 134.447 7.73242H144.926V7.74379Z" fill="white"/>
<path d="M161.719 7.74375C163.545 7.74375 164.854 8.14457 165.649 8.9405C166.444 9.73927 166.841 10.9189 166.841 12.4852V13.7957C166.841 15.1175 166.563 16.1579 166.006 16.9254C165.45 17.6929 164.547 18.1847 163.292 18.3979L167.363 23.2786C167.443 23.3554 167.466 23.4691 167.437 23.6226C167.403 23.7761 167.278 23.8528 167.054 23.8528H163.982C163.775 23.8528 163.633 23.8301 163.553 23.7846C163.474 23.7391 163.394 23.6624 163.315 23.5544L159.55 18.7674H151.857V23.3468C151.857 23.6851 151.683 23.8528 151.331 23.8528H148.759C148.396 23.8528 148.211 23.6851 148.211 23.3468V8.42882C148.211 7.96831 148.45 7.73806 148.927 7.73806H161.719V7.74375ZM151.857 15.9617H160.978C161.79 15.9617 162.361 15.794 162.693 15.4558C163.028 15.1175 163.193 14.603 163.193 13.9122V12.9457C163.193 12.255 163.025 11.7405 162.693 11.405C162.361 11.0668 161.788 10.899 160.978 10.899H152.166C151.962 10.899 151.857 10.99 151.857 11.1748V15.9617Z" fill="white"/>
<path d="M187.61 7.7438C187.973 7.7438 188.158 7.91435 188.158 8.24978V10.504C188.158 10.8565 187.976 11.0327 187.61 11.0327H180.132V23.3469C180.132 23.6852 179.956 23.8529 179.607 23.8529H177.012C176.663 23.8529 176.487 23.6852 176.487 23.3469V11.0355H169.009C168.642 11.0355 168.461 10.8593 168.461 10.5068V8.25262C168.461 7.91435 168.642 7.74665 169.009 7.74665H187.61V7.7438Z" fill="white"/>
<path d="M193.393 7.7438C193.742 7.7438 193.918 7.91435 193.918 8.24978V23.3497C193.918 23.688 193.745 23.8557 193.393 23.8557H190.82C190.457 23.8557 190.273 23.688 190.273 23.3497V8.24978C190.273 7.91151 190.454 7.7438 190.82 7.7438H193.393Z" fill="white"/>
<path d="M213.639 7.74381C213.988 7.74381 214.164 7.91436 214.164 8.24979V10.4358C214.164 10.774 213.988 10.9417 213.639 10.9417H201.706C201.246 10.9417 200.92 11.0555 200.73 11.2857C200.54 11.516 200.446 11.8315 200.446 12.2294V13.0112C200.446 13.8696 200.858 14.3017 201.684 14.3017H210.615C211.995 14.3017 213.037 14.6428 213.735 15.325C214.434 16.0073 214.783 16.9851 214.783 18.2586V20.1006C214.783 21.2206 214.442 22.1274 213.761 22.8182C213.077 23.5089 212.015 23.8529 210.57 23.8529H197.374C197.011 23.8529 196.826 23.6852 196.826 23.3469V21.1609C196.826 20.8227 197.008 20.6549 197.374 20.6549H209.88C210.34 20.6549 210.666 20.5384 210.857 20.3082C211.047 20.0779 211.141 19.7652 211.141 19.3644V18.4207C211.141 17.5622 210.729 17.1329 209.903 17.1329H200.971C199.591 17.1329 198.549 16.7918 197.851 16.1096C197.153 15.4274 196.803 14.4495 196.803 13.1732V11.4932C196.803 10.3732 197.144 9.46643 197.825 8.77568C198.51 8.08492 199.571 7.74096 201.017 7.74096H213.639V7.74381Z" fill="white"/>
<path d="M234.453 7.74379C234.819 7.74379 235 7.91433 235 8.24976V10.4357C235 10.774 234.819 10.9417 234.453 10.9417H224.045C223.426 10.9417 222.915 10.9901 222.509 11.0895C222.103 11.189 221.776 11.3596 221.532 11.5955C221.285 11.8343 221.115 12.1555 221.021 12.562C220.927 12.9685 220.876 13.4716 220.876 14.0686V14.2988H234.333C234.682 14.2988 234.859 14.4694 234.859 14.8048V16.6241C234.859 16.9624 234.682 17.1301 234.333 17.1301H220.876V17.5195C220.876 18.1165 220.924 18.6225 221.021 19.0261C221.117 19.4326 221.288 19.7567 221.532 19.9926C221.779 20.2314 222.103 20.3991 222.509 20.4986C222.915 20.5981 223.426 20.6492 224.045 20.6492H234.453C234.819 20.6492 235 20.817 235 21.1552V23.3412C235 23.6795 234.819 23.8472 234.453 23.8472H223.974C222.767 23.8472 221.742 23.7392 220.902 23.526C220.059 23.3128 219.374 22.9631 218.841 22.4799C218.31 21.9966 217.921 21.3656 217.674 20.5924C217.427 19.8192 217.305 18.8783 217.305 17.7725V13.8128C217.305 12.7098 217.43 11.7718 217.674 11.0043C217.918 10.2367 218.31 9.61138 218.841 9.12814C219.374 8.64489 220.059 8.29241 220.902 8.06785C221.742 7.84612 222.767 7.73242 223.974 7.73242H234.453V7.74379Z" fill="white"/>
</svg>
